<svg width="25" height="20" viewBox="0 0 25 20" fill="none" xmlns="http://www.w3.org/2000/svg">
<path d="M0.976013 -9.15527e-05H24.976V19.9999H0.976013V-9.15527e-05Z" fill="#012169"/>
<path d="M0.976013 -9.15527e-05V2.23428L22.2924 19.9999H24.976V17.7655L3.65961 -9.15527e-05H0.976013ZM24.976 -9.15527e-05V2.23428L3.65961 19.9999H0.976013V17.7655L22.2924 -9.15527e-05H24.976Z" fill="white"/>
<path d="M10.9768 -9.15527e-05V19.9999H14.9752V-9.15527e-05H10.9768ZM0.976013 6.66788V13.3319H24.976V6.66788H0.976013Z" fill="white"/>
<path d="M0.976013 7.99991V11.9999H24.976V7.99991H0.976013ZM11.776 -9.15527e-05V19.9999H14.176V-9.15527e-05H11.776ZM0.976013 19.9999L8.97523 13.3319H10.7659L2.76429 19.9999H0.976013ZM0.976013 -9.15527e-05L8.97523 6.66788H7.18695L0.976013 1.4921V-9.15527e-05ZM15.1885 6.66788L23.1877 -9.15527e-05H24.976L16.9768 6.66788H15.1885ZM24.976 19.9999L16.9768 13.3319H18.7651L24.976 18.5077V19.9999Z" fill="#C8102E"/>
<rect x="1.5" y="0.499908" width="23" height="19" stroke="black" stroke-opacity="0.11"/>
</svg>
