<svg width="40" height="51" viewBox="0 0 40 51" fill="none" xmlns="http://www.w3.org/2000/svg">
<g clip-path="url(#clip0_2_1006)">
<g clip-path="url(#clip1_2_1006)">
<circle cx="12" cy="18.5" r="11" stroke="black" stroke-width="2"/>
<circle cx="12.2" cy="23.7" r="1.2" fill="black"/>
<path d="M12 20V11.5" stroke="black" stroke-width="2" stroke-linejoin="round"/>
<path d="M4 10.5V6.5C4 3.73858 6.23858 1.5 9 1.5H34C36.7614 1.5 39 3.73858 39 6.5V44.5C39 47.2614 36.7614 49.5 34 49.5H16.6875M4 26V34.5" stroke="black" stroke-width="2"/>
<path d="M33.5 49.5L32.9153 49.3701C30.6277 48.8617 29 46.8326 29 44.4891V39.5C29 36.7386 26.7614 34.5 24 34.5H6C3.23858 34.5 1 36.7386 1 39.5V44.5C1 47.2614 3.23858 49.5 6 49.5H18.85" stroke="black" stroke-width="2"/>
<path d="M18 9.5L34 9.5" stroke="black" stroke-width="2"/>
<path d="M23 14.5L34 14.5" stroke="black" stroke-width="2"/>
</g>
</g>
<defs>
<clipPath id="clip0_2_1006">
<rect width="40" height="50" fill="white" transform="translate(0 0.5)"/>
</clipPath>
<clipPath id="clip1_2_1006">
<rect width="40" height="50" fill="white" transform="translate(0 0.5)"/>
</clipPath>
</defs>
</svg>
