<svg width="32" height="32" viewBox="0 0 32 32" fill="none" xmlns="http://www.w3.org/2000/svg">
<circle cx="16" cy="16" r="13.5" stroke="#F36769"/>
<path d="M19.2067 18.476C19.2067 19.2733 18.9358 19.9429 18.394 20.4847C17.8624 21.0162 17.1622 21.328 16.2933 21.42V22.8H15.3733V21.4353C14.5453 21.3842 13.84 21.1644 13.2573 20.776C12.6747 20.3876 12.2556 19.8662 12 19.212L12.92 18.6753C13.2982 19.718 14.116 20.2904 15.3733 20.3927V16.1607C14.5453 15.8744 13.886 15.5473 13.3953 15.1793C12.8229 14.75 12.5367 14.0907 12.5367 13.2013C12.5367 12.404 12.8024 11.7549 13.334 11.254C13.886 10.7327 14.5658 10.4362 15.3733 10.3647V9H16.2933V10.38C16.9067 10.4516 17.4433 10.656 17.9033 10.9933C18.3736 11.3307 18.7313 11.7856 18.9767 12.358L18.072 12.864C17.7551 12.0564 17.1622 11.5811 16.2933 11.438V15.4247C17.152 15.7109 17.8216 16.0482 18.302 16.4367C18.9051 16.9069 19.2067 17.5867 19.2067 18.476ZM13.61 13.2013C13.61 13.6511 13.7429 14.0191 14.0087 14.3053C14.2847 14.5813 14.7396 14.842 15.3733 15.0873V11.4227C14.8418 11.484 14.4124 11.6731 14.0853 11.99C13.7684 12.3069 13.61 12.7107 13.61 13.2013ZM16.2933 16.4827V20.3773C16.8658 20.2956 17.3156 20.086 17.6427 19.7487C17.9698 19.4113 18.1333 18.9871 18.1333 18.476C18.1333 17.9956 17.9851 17.6071 17.6887 17.3107C17.4024 17.0142 16.9373 16.7382 16.2933 16.4827Z" fill="#F36769"/>
</svg>
