<svg width="12" height="10" viewBox="0 0 12 10" fill="none" xmlns="http://www.w3.org/2000/svg">
<path d="M4.38462 9.66409C4.28205 9.66375 4.18064 9.6418 4.08669 9.59961C3.99274 9.55742 3.90827 9.49588 3.83852 9.41883L0.20278 5.45639C0.0668714 5.308 -0.00593442 5.11038 0.000378846 4.907C0.00350486 4.80629 0.0259611 4.7072 0.0664653 4.61539C0.10697 4.52358 0.164728 4.44084 0.236444 4.37189C0.30816 4.30295 0.392429 4.24915 0.484439 4.21357C0.576448 4.17799 0.674397 4.16133 0.772693 4.16453C0.97121 4.171 1.15909 4.25799 1.295 4.40638L4.37714 7.77101L10.6686 0.719853C10.7325 0.638399 10.8119 0.571177 10.902 0.522316C10.9921 0.473455 11.0911 0.443987 11.1927 0.435722C11.2944 0.427456 11.3966 0.440568 11.4931 0.474252C11.5896 0.507935 11.6784 0.561479 11.754 0.631596C11.8296 0.701712 11.8904 0.78692 11.9327 0.881986C11.975 0.977052 11.9978 1.07997 11.9999 1.18442C12.0019 1.28886 11.9831 1.39263 11.9445 1.48936C11.906 1.58608 11.8486 1.67371 11.7758 1.74687L4.93821 9.41117C4.86912 9.48961 4.78494 9.55258 4.69096 9.5961C4.59698 9.63963 4.49523 9.66277 4.39211 9.66409H4.38462Z" fill="white"/>
</svg>
