<svg width="207" height="64" viewBox="0 0 207 64" fill="none" xmlns="http://www.w3.org/2000/svg">
<rect width="207" height="64" fill="#C4C4C4"/>
<path d="M97.6236 33.4189H97V28H97.6236V33.4189Z" fill="black"/>
<path d="M101.6 32.9512C101.237 33.3273 100.79 33.5154 100.26 33.5154C99.7291 33.5154 99.2823 33.3273 98.9191 32.9512C98.5559 32.5751 98.3743 32.1124 98.3743 31.5631C98.3743 31.0138 98.5559 30.5511 98.9191 30.175C99.2823 29.7989 99.7291 29.6108 100.26 29.6108C100.79 29.6108 101.237 29.7989 101.6 30.175C101.968 30.556 102.152 31.0187 102.152 31.5631C102.152 32.1075 101.968 32.5702 101.6 32.9512ZM100.26 32.8844C100.618 32.8844 100.919 32.7582 101.163 32.5058C101.406 32.2534 101.528 31.9392 101.528 31.5631C101.528 31.187 101.406 30.8727 101.163 30.6204C100.919 30.368 100.618 30.2418 100.26 30.2418C99.9059 30.2418 99.6072 30.368 99.3635 30.6204C99.1198 30.8727 98.9979 31.187 98.9979 31.5631C98.9979 31.9392 99.1198 32.2534 99.3635 32.5058C99.6072 32.7582 99.9059 32.8844 100.26 32.8844Z" fill="black"/>
<path d="M105.862 30.3457V29.7073H106.478V33.263C106.478 33.8123 106.299 34.2379 105.941 34.5398C105.577 34.8466 105.147 35 104.65 35C104.249 35 103.903 34.9208 103.611 34.7625C103.32 34.609 103.1 34.3864 102.952 34.0944L103.496 33.7752C103.692 34.1909 104.082 34.3987 104.665 34.3987C105.037 34.3987 105.329 34.2973 105.539 34.0944C105.754 33.8915 105.862 33.6144 105.862 33.263V32.7359C105.546 33.2308 105.097 33.4783 104.514 33.4783C103.998 33.4783 103.566 33.2902 103.217 32.9141C102.863 32.5331 102.686 32.0753 102.686 31.5408C102.686 31.0064 102.863 30.5511 103.217 30.175C103.566 29.7989 103.998 29.6108 104.514 29.6108C105.102 29.6108 105.551 29.8558 105.862 30.3457ZM105.862 31.5408C105.862 31.1697 105.74 30.8579 105.496 30.6055C105.253 30.3531 104.949 30.2269 104.586 30.2269C104.223 30.2269 103.919 30.3531 103.676 30.6055C103.432 30.8579 103.31 31.1697 103.31 31.5408C103.31 31.9169 103.432 32.2312 103.676 32.4836C103.919 32.7359 104.223 32.8621 104.586 32.8621C104.949 32.8621 105.253 32.7359 105.496 32.4836C105.74 32.2312 105.862 31.9169 105.862 31.5408Z" fill="black"/>
<path d="M110.448 32.9512C110.085 33.3273 109.638 33.5154 109.108 33.5154C108.577 33.5154 108.13 33.3273 107.767 32.9512C107.404 32.5751 107.222 32.1124 107.222 31.5631C107.222 31.0138 107.404 30.5511 107.767 30.175C108.13 29.7989 108.577 29.6108 109.108 29.6108C109.638 29.6108 110.085 29.7989 110.448 30.175C110.816 30.556 111 31.0187 111 31.5631C111 32.1075 110.816 32.5702 110.448 32.9512ZM109.108 32.8844C109.466 32.8844 109.767 32.7582 110.011 32.5058C110.255 32.2534 110.376 31.9392 110.376 31.5631C110.376 31.187 110.255 30.8727 110.011 30.6204C109.767 30.368 109.466 30.2418 109.108 30.2418C108.754 30.2418 108.455 30.368 108.212 30.6204C107.968 30.8727 107.846 31.187 107.846 31.5631C107.846 31.9392 107.968 32.2534 108.212 32.5058C108.455 32.7582 108.754 32.8844 109.108 32.8844Z" fill="black"/>
</svg>
