<svg width="18" height="18" viewBox="0 0 18 18" fill="none" xmlns="http://www.w3.org/2000/svg">
<rect width="18" height="18" fill="#C4C4C4"/>
<path d="M2.62362 10.4189H2V5H2.62362V10.4189Z" fill="black"/>
<path d="M6.59995 9.95122C6.23677 10.3273 5.78996 10.5154 5.25952 10.5154C4.72908 10.5154 4.28227 10.3273 3.91909 9.95122C3.5559 9.57511 3.37431 9.11241 3.37431 8.5631C3.37431 8.01379 3.5559 7.55108 3.91909 7.17497C4.28227 6.79887 4.72908 6.61082 5.25952 6.61082C5.78996 6.61082 6.23677 6.79887 6.59995 7.17497C6.96791 7.55603 7.15189 8.01873 7.15189 8.5631C7.15189 9.10746 6.96791 9.57017 6.59995 9.95122ZM5.25952 9.88441C5.61792 9.88441 5.91898 9.75822 6.1627 9.50583C6.40641 9.25345 6.52827 8.9392 6.52827 8.5631C6.52827 8.18699 6.40641 7.87275 6.1627 7.62036C5.91898 7.36797 5.61792 7.24178 5.25952 7.24178C4.90589 7.24178 4.60722 7.36797 4.36351 7.62036C4.11979 7.87275 3.99794 8.18699 3.99794 8.5631C3.99794 8.9392 4.11979 9.25345 4.36351 9.50583C4.60722 9.75822 4.90589 9.88441 5.25952 9.88441Z" fill="black"/>
<path d="M10.8618 7.34571V6.70732H11.4783V10.263C11.4783 10.8123 11.2991 11.2379 10.9407 11.5398C10.5775 11.8466 10.1474 12 9.65042 12C9.24901 12 8.90255 11.9208 8.61105 11.7625C8.31954 11.609 8.09972 11.3864 7.95158 11.0944L8.49636 10.7752C8.69229 11.1909 9.08175 11.3987 9.66476 11.3987C10.0375 11.3987 10.329 11.2973 10.5393 11.0944C10.7543 10.8915 10.8618 10.6144 10.8618 10.263V9.73595C10.5464 10.2308 10.0972 10.4783 9.51423 10.4783C8.99812 10.4783 8.56565 10.2902 8.2168 9.9141C7.86318 9.53305 7.68636 9.07529 7.68636 8.54083C7.68636 8.00636 7.86318 7.55108 8.2168 7.17497C8.56565 6.79887 8.99812 6.61082 9.51423 6.61082C10.102 6.61082 10.5512 6.85578 10.8618 7.34571ZM10.8618 8.54083C10.8618 8.16967 10.74 7.8579 10.4963 7.60551C10.2525 7.35313 9.94909 7.22694 9.58591 7.22694C9.22272 7.22694 8.91927 7.35313 8.67556 7.60551C8.43184 7.8579 8.30999 8.16967 8.30999 8.54083C8.30999 8.91693 8.43184 9.23118 8.67556 9.48356C8.91927 9.73595 9.22272 9.86214 9.58591 9.86214C9.94909 9.86214 10.2525 9.73595 10.4963 9.48356C10.74 9.23118 10.8618 8.91693 10.8618 8.54083Z" fill="black"/>
<path d="M15.4481 9.95122C15.0849 10.3273 14.6381 10.5154 14.1076 10.5154C13.5772 10.5154 13.1304 10.3273 12.7672 9.95122C12.404 9.57511 12.2224 9.11241 12.2224 8.5631C12.2224 8.01379 12.404 7.55108 12.7672 7.17497C13.1304 6.79887 13.5772 6.61082 14.1076 6.61082C14.6381 6.61082 15.0849 6.79887 15.4481 7.17497C15.816 7.55603 16 8.01873 16 8.5631C16 9.10746 15.816 9.57017 15.4481 9.95122ZM14.1076 9.88441C14.466 9.88441 14.7671 9.75822 15.0108 9.50583C15.2545 9.25345 15.3764 8.9392 15.3764 8.5631C15.3764 8.18699 15.2545 7.87275 15.0108 7.62036C14.7671 7.36797 14.466 7.24178 14.1076 7.24178C13.754 7.24178 13.4553 7.36797 13.2116 7.62036C12.9679 7.87275 12.846 8.18699 12.846 8.5631C12.846 8.9392 12.9679 9.25345 13.2116 9.50583C13.4553 9.75822 13.754 9.88441 14.1076 9.88441Z" fill="black"/>
</svg>
