<svg width="66" height="40" viewBox="0 0 66 40" fill="none" xmlns="http://www.w3.org/2000/svg">
<g clip-path="url(#clip0_2_714)">
<path d="M37.2565 26.0112C36.9903 22.6798 32.664 17.3389 31.6139 16.0665C27.2028 10.7286 15.119 0.816064 13.1123 0.00878906C12.5536 0.854088 12.0095 7.51996 12.2348 14.0688C9.70158 13.3551 7.82363 13.4838 6.18555 13.9665C10.3188 16.9382 11.3484 18.2982 14.0484 25.6953C16.7483 33.0924 23.7657 38.5649 25.9391 39.7875C25.9391 39.7875 20.7586 34.6543 18.9743 29.4743C17.0291 23.8263 17.4971 10.6291 17.4971 10.6291C17.4971 10.6291 24.8948 16.5375 26.957 18.9973C26.957 18.9973 30.4994 22.9138 31.3799 24.4815C32.5295 26.5026 33.2958 28.2839 32.936 29.8779C32.2691 32.993 28.952 32.2384 32.1697 32.4841C35.1124 32.4811 37.6631 30.8227 37.2565 26.0112Z" fill="#F36769"/>
<path d="M26.7494 26.0112C27.0185 22.6798 31.3448 17.3389 32.392 16.0665C36.8031 10.7286 48.8927 0.816064 50.8994 0.00878906C51.4581 0.854088 51.9817 7.51996 51.7594 14.0688C54.2955 13.3551 56.1705 13.4838 57.8145 13.9665C53.6812 16.9382 52.6486 18.2982 49.9517 25.6983C47.2547 33.0983 40.2343 38.5679 38.0521 39.7875C38.0521 39.7875 43.2326 34.6543 45.0169 29.4743C46.9622 23.8263 46.4941 10.6291 46.4941 10.6291C46.4941 10.6291 39.1023 16.5375 37.043 18.9973C37.043 18.9973 33.5006 22.9138 32.6201 24.4815C31.4706 26.5026 30.7042 28.2839 31.064 29.8779C31.1504 30.4326 31.3817 30.9545 31.7346 31.3911C32.0875 31.8276 32.5493 32.1633 33.0735 32.3641L33.2081 32.4109C32.7489 32.4758 32.2851 32.5012 31.8216 32.487C28.8906 32.4811 26.3574 30.8227 26.7494 26.0112Z" fill="#F36769"/>
</g>
<defs>
<clipPath id="clip0_2_714">
<rect width="52" height="40" fill="white" transform="translate(6)"/>
</clipPath>
</defs>
</svg>
